<?xml version="1.0" standalone="no"?>
<!DOCTYPE svg PUBLIC "-//W3C//DTD SVG 20010904//EN"
 "http://www.w3.org/TR/2001/REC-SVG-20010904/DTD/svg10.dtd">
<svg version="1.0" xmlns="http://www.w3.org/2000/svg"
 width="353.000000pt" height="143.000000pt" viewBox="0 0 353.000000 143.000000"
 preserveAspectRatio="xMidYMid meet">

<g transform="translate(0.000000,143.000000) scale(0.100000,-0.100000)"
fill="#000000" stroke="none">
<path d="M0 1137 l0 -292 82 1 c46 1 119 3 163 4 44 0 108 -2 142 -6 48 -5 65
-3 76 8 23 23 -2 48 -51 50 -23 1 -39 5 -36 10 4 5 12 7 20 4 8 -3 14 1 14 9
0 19 -18 29 -33 17 -7 -6 -26 -12 -42 -14 -32 -3 -33 -1 -19 61 6 30 5 33 -9
28 -10 -4 -17 -1 -17 6 0 20 54 14 75 -9 20 -22 115 -41 115 -23 0 20 30 7 36
-15 4 -17 12 -23 30 -22 13 0 24 4 24 7 0 12 103 20 113 10 6 -6 19 -11 29
-11 10 0 18 -5 18 -11 0 -7 11 -9 30 -5 29 5 30 5 30 -35 0 -35 2 -40 18 -34
32 14 72 18 72 6 0 -6 8 -11 18 -11 10 0 23 -5 30 -12 6 -6 42 -13 79 -14 60
-2 66 -1 48 12 -18 14 -18 14 4 14 12 0 19 4 16 10 -3 6 3 10 15 10 16 0 21 5
18 23 -2 12 -10 27 -18 34 -13 11 -11 13 10 13 54 3 -14 19 -80 19 -37 1 -70
5 -75 10 -13 12 -149 41 -195 41 -26 0 -31 3 -20 10 8 5 26 10 40 10 23 1 23
2 7 11 -10 6 -27 9 -38 6 -10 -3 -19 -1 -19 4 0 12 -107 11 -115 -1 -8 -13
-62 -13 -70 0 -3 6 2 10 12 10 11 0 24 5 30 11 12 12 216 22 208 10 -5 -9 144
-35 153 -27 3 3 -4 6 -16 6 -37 0 -25 18 16 25 26 4 52 1 81 -11 34 -13 47
-14 68 -5 17 8 28 9 32 2 10 -15 95 -35 116 -28 14 6 15 10 5 22 -16 19 -71
46 -99 48 -11 1 -21 5 -21 10 0 5 -18 7 -40 3 -37 -6 -40 -4 -40 17 0 13 5 28
12 35 7 7 8 13 3 13 -6 1 -14 2 -20 4 -5 1 -38 3 -73 3 -49 2 -66 6 -79 22
-10 11 -28 20 -40 20 -28 0 -29 -8 -6 -26 15 -11 16 -13 3 -14 -9 0 -20 4 -25
9 -11 11 -111 18 -121 9 -3 -4 7 -15 23 -24 15 -10 31 -23 35 -28 4 -6 14 -4
25 6 11 11 24 14 32 9 11 -7 11 -10 0 -15 -20 -8 71 0 100 9 17 6 22 5 17 -3
-4 -7 -1 -12 8 -12 10 0 13 -6 9 -16 -5 -14 -7 -15 -15 -1 -6 12 -18 14 -46
10 -20 -3 -40 -10 -43 -15 -7 -11 -106 8 -124 24 -36 32 -45 38 -62 38 -13 -1
-11 -5 10 -16 28 -15 28 -34 1 -34 -8 0 -12 -5 -9 -10 4 -7 -8 -8 -35 -4 -26
4 -40 3 -38 -4 3 -12 -6 -14 -27 -6 -23 9 -18 34 8 34 34 0 53 16 39 32 -8 11
-6 17 9 26 11 7 24 10 30 6 5 -3 17 0 25 7 13 11 11 14 -17 26 -37 15 -63 17
-54 3 3 -5 -1 -10 -10 -10 -9 0 -14 4 -11 9 6 9 -11 12 -82 13 -31 0 -50 6
-64 20 l-21 21 104 -8 c249 -18 289 -20 292 -11 2 6 41 4 98 -3 143 -19 181
-19 177 3 -3 15 4 18 24 11 7 -2 36 -6 63 -7 34 -2 49 -7 48 -15 -2 -8 7 -13
20 -13 19 1 20 2 5 11 -10 5 -15 16 -11 25 4 10 9 12 18 4 9 -7 29 -7 66 1 77
17 359 16 359 0 0 -9 -9 -9 -144 -12 -57 -1 -84 -4 -75 -10 12 -8 12 -11 -1
-19 -8 -5 -23 -10 -32 -10 -10 0 -18 -5 -18 -10 0 -18 141 -5 155 14 19 26 32
19 27 -16 -4 -27 -2 -30 13 -24 10 3 24 1 31 -5 8 -6 41 -12 74 -13 33 0 60
-5 60 -11 -1 -5 -11 -9 -23 -8 -34 3 -130 -16 -137 -27 -7 -11 -75 -15 -110
-6 l-25 7 25 -14 c23 -14 23 -15 5 -20 -11 -2 -8 -4 7 -2 22 1 25 -1 17 -12
-9 -11 1 -13 57 -14 38 -1 60 -4 49 -6 -11 -3 -23 -10 -27 -16 -5 -8 -45 -11
-120 -9 -139 3 -176 -12 -54 -22 48 -4 91 -4 96 -1 5 3 62 8 127 10 65 2 136
8 158 13 22 4 54 5 70 2 17 -4 77 -7 135 -9 58 -1 120 -7 138 -12 34 -11 111
2 139 24 14 10 202 12 233 2 15 -5 18 -3 14 9 -5 13 4 16 55 16 43 0 61 -4 61
-13 0 -15 51 -17 62 -3 12 18 103 12 141 -9 32 -17 41 -18 85 -7 26 7 55 10
64 7 9 -4 37 1 62 9 53 18 111 22 86 6 -11 -7 -4 -10 25 -10 22 1 49 7 59 15
26 20 38 19 34 -2 -2 -13 5 -16 42 -16 25 0 47 -4 50 -8 3 -4 41 -8 85 -10
l80 -4 3 177 2 178 -1764 0 -1765 0 -1 -293z m890 233 c0 -5 -2 -10 -4 -10 -3
0 -8 5 -11 10 -3 6 -1 10 4 10 6 0 11 -4 11 -10z m-542 -36 c28 -4 52 -11 52
-15 0 -5 -7 -9 -15 -9 -9 0 -12 -6 -8 -16 5 -14 1 -15 -28 -9 -72 15 -106 28
-106 41 0 16 24 17 105 8z m1277 -34 c-3 -5 -12 -10 -18 -10 -7 0 -6 4 3 10
19 12 23 12 15 0z m205 -40 c0 -5 -21 -10 -47 -9 -39 1 -43 2 -23 9 36 12 70
12 70 0z m37 -66 c-3 -3 -12 -4 -19 -1 -8 3 -5 6 6 6 11 1 17 -2 13 -5z m-82
-19 c-49 -18 -45 -18 -45 0 0 11 11 15 43 15 l42 -1 -40 -14z m-1670 -5 c3 -5
2 -10 -4 -10 -5 0 -13 5 -16 10 -3 6 -2 10 4 10 5 0 13 -4 16 -10z m775 -20
c0 -5 -7 -7 -15 -4 -8 4 -15 8 -15 10 0 2 7 4 15 4 8 0 15 -4 15 -10z m950
-20 c0 -22 -20 -26 -38 -8 -19 19 -14 28 13 28 18 0 25 -5 25 -20z m-1215 0
c-3 -5 -14 -10 -23 -9 -14 0 -13 2 3 9 27 11 27 11 20 0z m458 -7 c-7 -2 -19
-2 -25 0 -7 3 -2 5 12 5 14 0 19 -2 13 -5z m-654 -27 c-11 -9 -69 -14 -69 -6
0 6 17 10 37 10 20 0 34 -2 32 -4z m-281 -34 c2 -7 -2 -10 -12 -6 -9 3 -16 11
-16 16 0 13 23 5 28 -10z m112 14 c0 -3 -4 -8 -10 -11 -5 -3 -10 -1 -10 4 0 6
5 11 10 11 6 0 10 -2 10 -4z m10 -68 c0 -22 -2 -22 -29 1 -13 11 -20 25 -16
30 9 15 45 -10 45 -31z m649 -77 c23 -15 -3 -19 -34 -5 -29 13 -29 13 -5 13
14 1 31 -3 39 -8z"/>
<path d="M1185 1300 c-3 -5 -1 -10 4 -10 6 0 11 5 11 10 0 6 -2 10 -4 10 -3 0
-8 -4 -11 -10z"/>
<path d="M1215 1261 c-3 -5 -2 -12 3 -15 5 -3 9 1 9 9 0 17 -3 19 -12 6z"/>
<path d="M1308 1253 c7 -3 16 -2 19 1 4 3 -2 6 -13 5 -11 0 -14 -3 -6 -6z"/>
<path d="M1528 1253 c6 -2 18 -2 25 0 6 3 1 5 -13 5 -14 0 -19 -2 -12 -5z"/>
<path d="M1414 1135 c21 -16 32 -13 21 4 -3 6 -14 11 -23 11 -15 -1 -15 -2 2
-15z"/>
<path d="M2791 1054 c-16 -18 -15 -19 24 -28 20 -4 25 -3 16 3 -8 5 -11 16 -8
25 8 20 -13 20 -32 0z"/>
<path d="M808 1053 c6 -2 18 -2 25 0 6 3 1 5 -13 5 -14 0 -19 -2 -12 -5z"/>
<path d="M2508 1023 c7 -3 16 -2 19 1 4 3 -2 6 -13 5 -11 0 -14 -3 -6 -6z"/>
<path d="M2470 980 c-12 -8 -11 -10 8 -10 12 0 22 5 22 10 0 13 -11 13 -30 0z"/>
<path d="M2543 983 c9 -2 23 -2 30 0 6 3 -1 5 -18 5 -16 0 -22 -2 -12 -5z"/>
<path d="M514 905 c-12 -9 -14 -14 -6 -15 7 0 20 7 28 15 20 19 4 20 -22 0z"/>
<path d="M3450 880 c15 -10 -17 -12 -159 -11 -35 0 -68 -2 -74 -6 -5 -3 -34
-7 -64 -10 -31 -2 -70 -10 -88 -17 -22 -9 -37 -11 -49 -4 -18 10 -80 -8 -72
-21 6 -9 185 -6 281 5 44 5 131 9 193 9 l112 0 0 33 c0 32 -1 32 -47 32 -35 0
-44 -3 -33 -10z"/>
<path d="M538 863 c-24 -6 -23 -23 2 -23 11 0 20 7 20 15 0 8 -1 14 -2 14 -2
-1 -11 -3 -20 -6z"/>
<path d="M2880 810 c0 -5 4 -10 9 -10 6 0 13 5 16 10 3 6 -1 10 -9 10 -9 0
-16 -4 -16 -10z"/>
<path d="M0 778 c0 -23 2 -23 68 -17 37 3 90 4 117 2 78 -6 23 14 -61 22 -38
3 -81 9 -96 11 -24 5 -28 2 -28 -18z"/>
<path d="M3405 773 c-22 -3 -43 -10 -47 -16 -4 -6 -70 -16 -155 -24 -81 -7
-170 -16 -198 -21 l-50 -9 68 -2 c103 -2 82 -21 -25 -22 -51 -1 -106 -3 -123
-5 -16 -2 -109 -4 -205 -5 -209 -1 -315 -15 -150 -19 l105 -3 -85 -8 c-47 -4
-155 -7 -241 -8 -86 -1 -192 -4 -235 -8 -68 -6 -74 -8 -46 -15 17 -4 47 -12
65 -16 l32 -9 -30 -6 c-111 -23 -541 -24 -730 -2 -22 3 -182 6 -355 7 -198 2
-318 6 -322 13 -5 6 -8 5 -8 -2 0 -7 -7 -13 -16 -13 -8 0 -13 4 -9 9 3 6 -5 9
-17 9 -67 -4 -98 2 -99 20 0 15 -1 15 -7 1 -5 -12 -13 -14 -27 -8 -11 4 -14 8
-6 8 8 1 12 4 8 7 -3 3 -19 -1 -36 -9 -16 -8 -31 -11 -33 -6 -2 6 -89 12 -196
14 -106 2 -202 7 -213 10 -19 6 -19 -1 -19 -314 l0 -321 1765 0 1765 0 0 390
0 390 -42 -2 c-24 -1 -61 -3 -83 -5z"/>
<path d="M255 750 c3 -5 15 -10 26 -10 10 0 19 5 19 10 0 6 -12 10 -26 10 -14
0 -23 -4 -19 -10z"/>
<path d="M560 721 c-28 -5 -18 -8 50 -14 47 -4 128 -7 180 -8 52 -1 84 -4 71
-8 -15 -4 11 -7 62 -9 90 -2 119 13 45 22 -70 9 -308 26 -342 25 -17 -1 -47
-5 -66 -8z"/>
<path d="M2888 713 c7 -3 16 -2 19 1 4 3 -2 6 -13 5 -11 0 -14 -3 -6 -6z"/>
<path d="M0 674 l0 -27 77 6 c43 3 79 11 81 16 2 6 16 12 30 12 47 2 -58 17
-125 18 -62 1 -63 0 -63 -25z"/>
</g>
</svg>
